# xmcd
#
# Track frame offsets: 
#        150
#        12960
#        24340
#        38025
#        50110
#        64160
#        76370
#        87980
#        98180
#        110060
#        123220
#        136920
#        150435
#        162615
#        173455
#        184540
#        198660
#        211535
#        224815
#        236985
#
# Disc length: 3321 seconds
#
# Revision: 0
# Processed by: cddbd v1.5.2PL0 Copyright (c) Steve Scherf et al.
# Submitted via: ExactAudioCopy v0.99pb4
#
DISCID=130cf714
DTITLE=Eddy Arnold - The Man From Tennessee
DYEAR=2008
DGENRE=
TTITLE0=Anytime
TTITLE1=Bouquet of Roses
TTITLE2=The Cattle Call
TTITLE3=I'll Hold You In My Heart (Til I Can Hold You In My Arms)
TTITLE4=My Daddy Is Only A Picture
TTITLE5=Just A Little Lovin' (Will Go A Long, Long Way)
TTITLE6=Don't Rob Another Man's Castle
TTITLE7=One Kiss Too Many
TTITLE8=I'm Throwing Rice (At The Girl That I Love)
TTITLE9=Take Me In Your Arms And Hold Me
TTITLE10=Molly Darling
TTITLE11=Why Should I Cry?
TTITLE12=I Walk Alone
TTITLE13=Easy Rockin' Chair
TTITLE14=It's A Sin
TTITLE15=I'm Thinking Tonight of My Blue Eyes
TTITLE16=I Talk To Myself About You
TTITLE17=You Must Walk The Line
TTITLE18=Texarkana Baby
TTITLE19=The Echo of Your Footsteps
EXTD=
EXTT0=
EXTT1=
EXTT2=
EXTT3=
EXTT4=
EXTT5=
EXTT6=
EXTT7=
EXTT8=
EXTT9=
EXTT10=
EXTT11=
EXTT12=
EXTT13=
EXTT14=
EXTT15=
EXTT16=
EXTT17=
EXTT18=
EXTT19=
PLAYORDER=
